<svg version="1.1" id="Layer_1" xmlns="http://www.w3.org/2000/svg" xmlns:xlink="http://www.w3.org/1999/xlink" x="0px" y="0px"
	 width="100%" viewBox="0 0 420 420" enable-background="new 0 0 420 420" xml:space="preserve">
     <path fill="currentColor" opacity="1.000000" stroke="currentColor" 
	d="
M324.000000,387.000000 
	C297.877441,387.000000 272.254852,387.000000 246.317871,387.000000 
	C246.317871,363.242218 246.317871,339.997986 246.317871,316.234985 
	C269.303894,316.234985 292.219330,316.234985 315.565491,316.234985 
	C315.565491,293.026184 315.565491,270.330444 315.565491,247.114639 
	C292.574219,247.114639 269.658478,247.114639 246.231262,247.114639 
	C246.231262,223.692352 246.231262,200.776855 246.231262,177.432648 
	C223.022461,177.432648 200.326736,177.432648 177.110962,177.432648 
	C177.110962,200.429520 177.110962,223.345276 177.110962,246.772430 
	C153.688232,246.772430 130.773071,246.772430 107.430817,246.772430 
	C107.430817,269.981323 107.430817,292.677032 107.430817,315.892731 
	C130.433456,315.892731 153.348846,315.892731 176.629349,315.892731 
	C176.629349,339.650330 176.629349,362.895264 176.629349,386.571014 
	C130.012299,386.571014 83.318100,386.571014 36.311951,386.571014 
	C36.311951,339.896973 36.311951,293.320496 36.311951,246.225952 
	C59.312805,246.225952 82.228546,246.225952 105.569992,246.225952 
	C105.569992,223.016983 105.569992,200.321289 105.569992,177.105637 
	C82.564857,177.105637 59.649544,177.105637 36.369843,177.105637 
	C36.369843,130.013763 36.369843,83.436920 36.369843,36.429573 
	C152.983002,36.429573 269.674530,36.429573 386.683289,36.429573 
	C386.683289,83.093430 386.683289,129.669907 386.683289,176.764496 
	C363.696655,176.764496 340.781189,176.764496 317.434784,176.764496 
	C317.434784,199.973236 317.434784,222.668991 317.434784,245.884796 
	C340.425262,245.884796 363.340881,245.884796 386.625366,245.884796 
	C386.625366,292.976593 386.625366,339.553467 386.625366,387.000000 
	C365.986206,387.000000 345.243103,387.000000 324.000000,387.000000 
M123.501801,107.000000 
	C118.088974,107.000000 112.676140,107.000000 107.339554,107.000000 
	C107.339554,130.415375 107.339554,152.973450 107.339554,175.572235 
	C130.357452,175.572235 153.033157,175.572235 175.660583,175.572235 
	C175.660583,152.584824 175.660583,130.026810 175.660583,107.000000 
	C158.384033,107.000000 141.442688,107.000000 123.501801,107.000000 
M257.526306,107.000000 
	C254.113815,107.000000 250.701340,107.000000 247.334259,107.000000 
	C247.334259,130.404114 247.334259,152.962372 247.334259,175.577026 
	C270.347046,175.577026 293.023010,175.577026 315.664856,175.577026 
	C315.664856,152.594254 315.664856,130.035919 315.664856,107.000000 
	C296.395752,107.000000 277.457947,107.000000 257.526306,107.000000 
z"/>
</svg>
